<svg xmlns="http://www.w3.org/2000/svg" xmlns:xlink="http://www.w3.org/1999/xlink" width="231" height="417.363" viewBox="0 0 231 417.363">
  <defs>
    <clipPath id="clip-path">
      <rect id="Rectangle_1" data-name="Rectangle 1" width="231" height="417.363" transform="translate(85)" fill="#fff"/>
    </clipPath>
  </defs>
  <g id="home-screen" transform="translate(-85)" clip-path="url(#clip-path)">
    <path id="Path_1" data-name="Path 1" d="M309.978,104.188h-2.4V38.2A38.149,38.149,0,0,0,269.473,0H130A38.149,38.149,0,0,0,91.9,38.2V400.241a38.15,38.15,0,0,0,38.1,38.2H269.473a38.149,38.149,0,0,0,38.1-38.2V151.163h2.4Z" fill="#f4f4f4"/>
    <path id="Path_2" data-name="Path 2" d="M271.01,9.934H252.8A13.539,13.539,0,0,1,240.287,28.6h-79.9a13.557,13.557,0,0,1-12.517-18.67h-17a28.489,28.489,0,0,0-28.454,28.524V399.977A28.488,28.488,0,0,0,130.863,428.5H271.01a28.488,28.488,0,0,0,28.454-28.524V38.457A28.489,28.489,0,0,0,271.01,9.934Z" fill="#fff"/>
    <path id="Path_3" data-name="Path 3" d="M200.936,223.779A66.181,66.181,0,1,1,247.6,204.371,65.909,65.909,0,0,1,200.936,223.779Zm0-131.116A64.923,64.923,0,1,0,246.712,111.7,64.655,64.655,0,0,0,200.936,92.663Z" fill="#3f3d56"/>
    <path id="Path_4" data-name="Path 4" d="M225.186,138.363c5.655-4.79,9.09-12.356,8.189-19.723s-6.48-14.137-13.717-15.7-15.486,2.766-17.684,9.853c-1.21-13.663-2.6-27.9-9.85-39.533-6.561-10.535-17.925-18.074-30.241-19.422S136.6,57.58,128.918,67.325s-9.562,23.912-4.182,35.1C128.7,110.667,136,116.8,143.65,121.791c24.406,15.92,54.681,21.3,83.489,17.049Z" fill="#cfdef3"/>
    <path id="Path_5" data-name="Path 5" d="M141.1,57.862A200.009,200.009,0,0,1,168.931,85.57a200.931,200.931,0,0,1,31.35,52.518c.564,1.386-1.682,1.99-2.24.619a199.64,199.64,0,0,0-58.587-79.2C138.294,58.563,139.947,56.924,141.1,57.862Z" fill="#fff"/>
    <path id="Path_6" data-name="Path 6" d="M144.555,288.706a6.934,6.934,0,1,0-6.917-6.934A6.925,6.925,0,0,0,144.555,288.706Z" fill="#17275f"/>
    <path id="Path_7" data-name="Path 7" d="M259.2,286.815H171.169a5.043,5.043,0,0,1,0-10.086H259.2a5.043,5.043,0,0,1,0,10.086Z" fill="#dae9ff"/>
    <path id="Path_8" data-name="Path 8" d="M231.9,286.876H170.806a5.1,5.1,0,0,1,0-10.208H231.9a5.1,5.1,0,0,1,0,10.208Z" fill="#5784f5"/>
    <path id="Path_9" data-name="Path 9" d="M144.555,318.963a6.934,6.934,0,1,0-6.917-6.934A6.925,6.925,0,0,0,144.555,318.963Z" fill="#17275f"/>
    <path id="Path_10" data-name="Path 10" d="M259.2,317.072H171.169a5.043,5.043,0,0,1,0-10.085H259.2a5.043,5.043,0,0,1,0,10.085Z" fill="#dae9ff"/>
    <path id="Path_11" data-name="Path 11" d="M144.555,349.221a6.934,6.934,0,1,0-6.917-6.934A6.925,6.925,0,0,0,144.555,349.221Z" fill="#17275f"/>
    <path id="Path_12" data-name="Path 12" d="M259.2,347.33H171.169a5.043,5.043,0,0,1,0-10.086H259.2a5.043,5.043,0,0,1,0,10.086Z" fill="#dae9ff"/>
    <path id="Path_13" data-name="Path 13" d="M211.778,317.133H170.806a5.1,5.1,0,0,1,0-10.207h40.972a5.1,5.1,0,0,1,0,10.207Z" fill="#5784f5"/>
    <path id="Path_14" data-name="Path 14" d="M248.249,347.391H170.806a5.1,5.1,0,0,1,0-10.208h77.443a5.1,5.1,0,0,1,0,10.208Z" fill="#5784f5"/>
    <path id="Path_15" data-name="Path 15" d="M235.894,147.3h-8.643V121.7a2.835,2.835,0,0,1,2.83-2.836h2.983a2.836,2.836,0,0,1,2.83,2.836Z" fill="#3f3d56"/>
    <path id="Path_16" data-name="Path 16" d="M241.133,190.865H158.52l-.3-46.676a5.4,5.4,0,0,1,1.615-3.873l20.754-20.263a5.311,5.311,0,0,1,3.68-1.52l34.734-.318a5.379,5.379,0,0,1,4.141,1.91l0,0,16.5,20.282a6.647,6.647,0,0,1,1.485,4.183Z" fill="#161b3d"/>
    <path id="Path_17" data-name="Path 17" d="M241.134,190.865h-44.4V149.034a5.365,5.365,0,0,1,1.278-3.477l19.29-22.671h0A5.326,5.326,0,0,1,221.372,121h.02a5.333,5.333,0,0,1,4.073,1.912l14.417,17.2a5.378,5.378,0,0,1,1.252,3.446Z" fill="#7398f6"/>
    <path id="Path_18" data-name="Path 18" d="M222.3,174.8h-6.423a1.576,1.576,0,0,1-1.572-1.576v-5.4a1.576,1.576,0,0,1,1.572-1.576H222.3a1.576,1.576,0,0,1,1.572,1.576v5.4A1.576,1.576,0,0,1,222.3,174.8Z" fill="#fff"/>
    <path id="Path_19" data-name="Path 19" d="M222.3,160.964h-6.423a1.576,1.576,0,0,1-1.572-1.576v-5.273a1.576,1.576,0,0,1,1.572-1.576H222.3a1.576,1.576,0,0,1,1.572,1.576v5.273a1.576,1.576,0,0,1-1.572,1.576Z" fill="#fff"/>
    <path id="Path_20" data-name="Path 20" d="M182.578,172.7h-6.423a1.576,1.576,0,0,1-1.572-1.575v-5.4a1.576,1.576,0,0,1,1.572-1.576h6.423a1.576,1.576,0,0,1,1.572,1.576v5.4a1.576,1.576,0,0,1-1.572,1.575Z" fill="#fff"/>
    <path id="Path_21" data-name="Path 21" d="M182.578,158.862h-6.423a1.576,1.576,0,0,1-1.572-1.576v-5.272a1.576,1.576,0,0,1,1.572-1.576h6.423a1.576,1.576,0,0,1,1.572,1.576v5.272a1.576,1.576,0,0,1-1.572,1.576Z" fill="#fff"/>
    <path id="Path_22" data-name="Path 22" d="M257.121,191.411H144.749a.631.631,0,0,1,0-1.261H257.121a.631.631,0,0,1,0,1.261Z" fill="#3f3d56"/>
  </g>
</svg>
